<svg width="1000" height="1000" viewBox="0 0 1000 1000" fill="none" xmlns="http://www.w3.org/2000/svg">
<path d="M181.82 587.979V520.687C181.82 490.665 206.654 465.819 236.661 465.819H388.766V402.669C388.766 391.281 398.079 381.964 409.461 381.964C420.843 381.964 430.156 391.281 430.156 402.669V554.851C430.156 562.098 436.364 568.309 443.607 568.309H607.095C618.477 568.309 627.789 577.626 627.789 589.014C627.789 600.402 618.477 609.719 607.095 609.719H443.607C413.6 609.719 388.766 584.873 388.766 554.851V506.194H236.661C229.418 506.194 223.21 512.405 223.21 519.652V586.944C223.21 598.331 213.897 607.649 202.515 607.649C191.133 607.649 181.82 599.367 181.82 587.979ZM790.242 743.267C778.86 743.267 769.547 752.584 769.547 763.972V781.571C769.547 788.818 763.339 795.029 756.096 795.029H608.129C600.886 795.029 594.678 788.818 594.678 781.571C594.678 749.478 560.532 722.562 531.559 722.562H402.218C390.836 722.562 381.523 731.879 381.523 743.267C381.523 754.655 390.836 763.972 402.218 763.972H531.559C540.872 763.972 553.289 775.36 553.289 781.571C553.289 811.593 578.122 836.439 608.129 836.439H756.096C786.103 836.439 810.937 811.593 810.937 781.571V763.972C810.937 752.584 801.624 743.267 790.242 743.267ZM337.03 714.28V863.356C337.03 871.638 332.891 877.85 325.648 881.991L211.828 938.93C210.793 938.93 209.758 939.965 209.758 939.965C208.723 939.965 208.723 939.965 207.689 941C205.619 941 204.584 941 202.515 941C200.446 941 199.411 941 197.341 939.965C196.307 939.965 196.307 939.965 195.272 938.93C194.237 938.93 193.202 938.929 193.202 937.894L79.382 880.955C72.1389 877.85 68 870.603 68 862.321V715.315V714.28C68 713.244 68 712.209 68 711.174V710.139C69.0347 707.033 70.0695 703.927 72.1389 701.857L73.1737 700.821C74.2084 699.786 75.2431 698.751 76.2778 698.751C76.2778 698.751 76.2778 698.751 77.3126 697.716C77.3126 697.716 77.3126 697.716 78.3473 697.716C78.3473 697.716 79.382 697.716 79.382 696.68L193.202 639.741C199.411 636.636 205.619 636.636 211.828 639.741L325.648 696.68C325.648 696.68 326.683 696.68 326.683 697.716C326.683 697.716 326.683 697.716 327.717 697.716C327.717 697.716 327.717 697.716 328.752 698.751C329.787 699.786 330.822 699.786 331.856 700.821L332.891 701.857C334.96 703.927 337.03 707.033 337.03 710.139V711.174C337.03 712.209 337.03 713.244 337.03 714.28ZM134.223 715.315L202.515 749.478L270.807 715.315L202.515 681.152L134.223 715.315ZM181.82 784.677L109.389 748.443V849.898L181.82 886.132V784.677ZM295.641 748.443L223.21 784.677V886.132L295.641 849.898V748.443ZM898.889 583.838C898.889 648.023 846.117 700.821 781.964 700.821C717.811 700.821 665.039 648.023 665.039 583.838C665.039 519.652 717.811 466.854 781.964 466.854C846.117 466.854 898.889 519.652 898.889 583.838ZM857.499 583.838C857.499 542.428 823.353 508.264 781.964 508.264C740.575 508.264 706.429 542.428 706.429 583.838C706.429 625.248 740.575 659.411 781.964 659.411C823.353 659.411 857.499 625.248 857.499 583.838ZM265.634 262.91C264.599 256.698 265.634 250.486 268.738 246.345L392.905 69.3173C392.905 68.282 393.94 68.282 394.975 67.2468C396.01 66.2115 396.01 66.2115 397.044 65.1763C399.114 62.0705 404.287 60 409.461 60C414.635 60 419.808 62.0705 422.913 65.1763C423.947 66.2115 423.947 66.2115 424.982 67.2468C426.017 68.282 426.017 68.282 427.052 69.3173L551.219 246.345C554.323 251.522 555.358 257.733 554.323 262.91C553.289 269.121 549.15 273.262 543.976 276.368L419.808 338.483C418.774 338.483 418.774 339.518 417.739 339.518C416.704 339.518 415.669 340.553 414.635 340.553C412.565 340.553 411.531 340.553 409.461 340.553C406.357 340.553 403.253 339.518 401.183 338.483H400.148L275.981 276.368C270.807 273.262 266.668 269.121 265.634 262.91ZM430.156 286.72L502.587 250.486L430.156 146.961V286.72ZM316.335 249.451L388.766 285.685V145.926L316.335 249.451ZM773.686 522.758C747.818 525.864 727.123 544.498 722.984 570.38C720.915 581.767 728.158 592.12 739.54 594.19C740.575 594.19 741.61 594.19 743.679 594.19C752.992 594.19 762.304 586.944 764.374 577.626C765.408 570.38 771.617 564.168 778.86 564.168C790.242 563.133 798.52 552.78 797.485 541.392C795.416 530.005 784.033 521.723 773.686 522.758ZM925.792 345.73C886.472 306.39 834.735 285.685 779.895 285.685C725.054 285.685 673.317 307.425 633.998 345.73C625.72 354.012 625.72 366.435 633.998 374.717C642.275 382.999 654.692 382.999 662.97 374.717C694.012 343.659 735.401 326.06 779.895 326.06C824.388 326.06 865.777 343.659 896.819 374.717C900.958 378.858 906.132 380.928 911.305 380.928C916.479 380.928 921.653 378.858 925.792 374.717C934.069 366.435 934.069 354.012 925.792 345.73ZM720.915 431.656C736.436 416.127 758.165 406.81 780.929 406.81C803.693 406.81 824.388 415.092 840.944 431.656C845.083 435.797 850.256 437.867 855.43 437.867C860.604 437.867 865.777 435.797 869.916 431.656C878.194 423.374 878.194 410.951 869.916 402.669C846.117 378.858 815.075 365.4 780.929 365.4C747.818 365.4 715.741 378.858 691.943 402.669C683.665 410.951 683.665 423.374 691.943 431.656C699.186 439.938 712.637 439.938 720.915 431.656Z" fill="#1A535C"/>
</svg>
